<svg width="600" height="600" viewBox="0 0 600 600" fill="none" xmlns="http://www.w3.org/2000/svg">
<g clip-path="url(#clip0_3_17)">
<path d="M368.942 476.117V584.334L324.95 590.346V552.465C324.95 538.463 313.925 527.111 300.379 527.111C286.833 527.111 275.808 538.463 275.808 552.465V590.346L232 584.334V476.117H257.639V491.753C257.639 498.445 262.916 503.856 269.39 503.856C275.864 503.856 281.141 498.445 281.141 491.753V476.117H319.6V491.687C319.6 498.379 324.877 503.79 331.351 503.79C337.825 503.79 343.102 498.379 343.102 491.687V476.117H368.942Z" fill="black"/>
<path d="M294.404 420.928V486.182H305.836V456.926C305.836 456.926 308.757 450.917 319.407 453.568C333.5 457.076 350.862 454.699 362.008 434.526C328.233 445.65 327.328 407.422 294.404 420.928Z" fill="black"/>
<circle cx="300" cy="300" r="281" stroke="black" stroke-width="18"/>
<circle cx="300" cy="300" r="20" fill="black"/>
<path d="M300 346V199" stroke="black" stroke-width="26" stroke-linecap="round"/>
<path d="M282.042 127.05H259.692V80.1L243.792 85.8C242.292 84.9 240.842 83.65 239.442 82.05C238.142 80.45 237.492 78.25 237.492 75.45C237.492 70.15 240.692 66.45 247.092 64.35L264.942 57.75H269.892C273.592 57.75 276.542 58.85 278.742 61.05C280.942 63.25 282.042 66.2 282.042 69.9V127.05ZM259.692 110.4H282.042V149.85C281.042 150.15 279.642 150.45 277.842 150.75C276.042 151.05 274.092 151.2 271.992 151.2C267.792 151.2 264.692 150.45 262.692 148.95C260.692 147.45 259.692 144.7 259.692 140.7V110.4ZM296.225 71.1C296.225 68 297.375 65.4 299.675 63.3C301.975 61.1 305.125 59.45 309.125 58.35C313.125 57.25 317.775 56.7 323.075 56.7C330.575 56.7 336.875 57.9 341.975 60.3C347.175 62.6 351.075 65.85 353.675 70.05C356.375 74.15 357.725 78.85 357.725 84.15C357.725 89.45 356.225 94.65 353.225 99.75C350.225 104.75 345.575 109.9 339.275 115.2L318.425 132.6H356.525C357.025 133.4 357.525 134.6 358.025 136.2C358.525 137.7 358.775 139.35 358.775 141.15C358.775 144.25 358.075 146.5 356.675 147.9C355.275 149.3 353.425 150 351.125 150H298.775C296.875 148.7 295.375 147 294.275 144.9C293.275 142.8 292.775 140.45 292.775 137.85C292.775 134.85 293.375 132.35 294.575 130.35C295.875 128.25 297.275 126.5 298.775 125.1L320.975 105.45C326.375 100.75 330.075 96.9 332.075 93.9C334.075 90.9 335.075 88.05 335.075 85.35C335.075 82.05 333.825 79.45 331.325 77.55C328.925 75.55 325.425 74.55 320.825 74.55C316.725 74.55 313.025 75.25 309.725 76.65C306.525 77.95 303.875 79.3 301.775 80.7C300.275 79.7 298.975 78.4 297.875 76.8C296.775 75.2 296.225 73.3 296.225 71.1Z" fill="black"/>
<path d="M485.99 230L485.247 232.097V292.929L485.99 293.545L519.979 276.853L485.99 230Z" fill="#343434"/>
<path d="M485.99 230L452 276.853L485.99 293.545V264.018V230Z" fill="#8C8C8C"/>
<path d="M485.99 298.891L485.571 299.315V320.984L485.99 322L520 282.208L485.99 298.891Z" fill="#3C3C3B"/>
<path d="M485.99 322V298.891L452 282.208L485.99 322Z" fill="#8C8C8C"/>
<path d="M485.99 293.545L519.979 276.853L485.99 264.018V293.545Z" fill="#141414"/>
<path d="M452 276.853L485.99 293.545V264.018L452 276.853Z" fill="#393939"/>
<path d="M113.99 230L113.247 232.097V292.929L113.99 293.545L147.979 276.853L113.99 230Z" fill="#343434"/>
<path d="M113.99 230L80 276.853L113.99 293.545V264.018V230Z" fill="#8C8C8C"/>
<path d="M113.99 298.891L113.571 299.315V320.984L113.99 322L148 282.208L113.99 298.891Z" fill="#3C3C3B"/>
<path d="M113.99 322V298.891L80 282.208L113.99 322Z" fill="#8C8C8C"/>
<path d="M113.99 293.545L147.979 276.853L113.99 264.018V293.545Z" fill="#141414"/>
<path d="M80 276.853L113.99 293.545V264.018L80 276.853Z" fill="#393939"/>
</g>
<defs>
<clipPath id="clip0_3_17">
<rect width="600" height="600" fill="white"/>
</clipPath>
</defs>
</svg>
